<mxfile host="app.diagrams.net" modified="2021-09-20T11:01:49.809Z" agent="5.0 (Windows NT 10.0; Win64; x64) AppleWebKit/537.36 (KHTML, like Gecko) Chrome/93.0.4577.82 Safari/537.36" etag="fnJp87HPDQXE5Qpcm7We" version="15.2.9" type="github">
  <diagram id="OI0fYujGkRiZd3--BMhA" name="Page-1">
    <mxGraphModel dx="1221" dy="644" grid="1" gridSize="10" guides="1" tooltips="1" connect="1" arrows="1" fold="1" page="1" pageScale="1" pageWidth="1169" pageHeight="827" math="0" shadow="0">
      <root>
        <mxCell id="0" />
        <mxCell id="1" parent="0" />
        <mxCell id="s7-hiE1AwTSkqZ-X3qo4-13" value="FK1" style="edgeStyle=orthogonalEdgeStyle;rounded=0;orthogonalLoop=1;jettySize=auto;html=1;fontFamily=Verdana;fontSize=13;endArrow=classic;endFill=1;startArrow=none;startFill=0;" parent="1" source="s7-hiE1AwTSkqZ-X3qo4-14" target="s7-hiE1AwTSkqZ-X3qo4-15" edge="1">
          <mxGeometry relative="1" as="geometry">
            <mxPoint x="490" y="110" as="targetPoint" />
          </mxGeometry>
        </mxCell>
        <mxCell id="s7-hiE1AwTSkqZ-X3qo4-14" value="&lt;div style=&quot;text-align: center ; font-size: 13px&quot;&gt;&lt;b style=&quot;font-size: 13px&quot;&gt;Student&lt;/b&gt;&lt;/div&gt;&lt;hr style=&quot;font-size: 13px&quot;&gt;&lt;table style=&quot;font-size: 13px&quot;&gt;&lt;tbody style=&quot;font-size: 13px&quot;&gt;&lt;tr style=&quot;font-size: 13px&quot;&gt;&lt;td style=&quot;font-size: 13px&quot;&gt;&lt;u&gt;student_id&lt;/u&gt;&lt;/td&gt;&lt;td style=&quot;font-size: 13px&quot;&gt;&lt;blockquote style=&quot;margin: 0px 0px 0px 40px ; border: none ; padding: 0px ; font-size: 13px&quot;&gt;int&lt;/blockquote&gt;&lt;/td&gt;&lt;td style=&quot;font-size: 13px&quot;&gt;&lt;blockquote style=&quot;margin: 0px 0px 0px 40px ; border: none ; padding: 0px ; font-size: 13px&quot;&gt;M, PK&lt;/blockquote&gt;&lt;/td&gt;&lt;/tr&gt;&lt;tr style=&quot;font-size: 13px&quot;&gt;&lt;td style=&quot;font-size: 13px&quot;&gt;student_forename&lt;/td&gt;&lt;td style=&quot;font-size: 13px&quot;&gt;&lt;blockquote style=&quot;margin: 0px 0px 0px 40px ; border: none ; padding: 0px ; font-size: 13px&quot;&gt;varchar(50)&lt;/blockquote&gt;&lt;/td&gt;&lt;td style=&quot;font-size: 13px&quot;&gt;&lt;blockquote style=&quot;margin: 0px 0px 0px 40px ; border: none ; padding: 0px ; font-size: 13px&quot;&gt;M&lt;/blockquote&gt;&lt;/td&gt;&lt;/tr&gt;&lt;tr style=&quot;font-size: 13px&quot;&gt;&lt;td style=&quot;font-size: 13px&quot;&gt;student_surname&lt;/td&gt;&lt;td style=&quot;font-size: 13px&quot;&gt;&lt;blockquote style=&quot;margin: 0px 0px 0px 40px ; border: none ; padding: 0px ; font-size: 13px&quot;&gt;varchar(50)&lt;/blockquote&gt;&lt;/td&gt;&lt;td style=&quot;font-size: 13px&quot;&gt;&lt;blockquote style=&quot;margin: 0px 0px 0px 40px ; border: none ; padding: 0px ; font-size: 13px&quot;&gt;M&lt;/blockquote&gt;&lt;/td&gt;&lt;/tr&gt;&lt;tr style=&quot;font-size: 13px&quot;&gt;&lt;td style=&quot;font-size: 13px&quot;&gt;student_sex&lt;/td&gt;&lt;td style=&quot;font-size: 13px&quot;&gt;&lt;blockquote style=&quot;margin: 0px 0px 0px 40px ; border: none ; padding: 0px ; font-size: 13px&quot;&gt;boolean&lt;/blockquote&gt;&lt;/td&gt;&lt;td style=&quot;font-size: 13px&quot;&gt;&lt;blockquote style=&quot;margin: 0px 0px 0px 40px ; border: none ; padding: 0px ; font-size: 13px&quot;&gt;M&lt;/blockquote&gt;&lt;/td&gt;&lt;/tr&gt;&lt;tr&gt;&lt;td&gt;group_id&lt;/td&gt;&lt;td&gt;&lt;blockquote style=&quot;margin: 0 0 0 40px ; border: none ; padding: 0px&quot;&gt;int&lt;/blockquote&gt;&lt;/td&gt;&lt;td&gt;&lt;blockquote style=&quot;margin: 0 0 0 40px ; border: none ; padding: 0px&quot;&gt;M, FK1&lt;/blockquote&gt;&lt;/td&gt;&lt;/tr&gt;&lt;/tbody&gt;&lt;/table&gt;" style="rounded=0;whiteSpace=wrap;html=1;labelBackgroundColor=none;fontFamily=Verdana;fontSize=13;align=left;verticalAlign=top;" parent="1" vertex="1">
          <mxGeometry x="121.87" y="40" width="342.5" height="140" as="geometry" />
        </mxCell>
        <mxCell id="s7-hiE1AwTSkqZ-X3qo4-15" value="&lt;div style=&quot;text-align: center ; font-size: 13px&quot;&gt;&lt;b style=&quot;font-size: 13px&quot;&gt;Group&lt;/b&gt;&lt;/div&gt;&lt;hr style=&quot;font-size: 13px&quot;&gt;&lt;table style=&quot;font-size: 13px&quot;&gt;&lt;tbody style=&quot;font-size: 13px&quot;&gt;&lt;tr style=&quot;font-size: 13px&quot;&gt;&lt;td style=&quot;font-size: 13px&quot;&gt;&lt;u&gt;group_id&lt;/u&gt;&lt;/td&gt;&lt;td style=&quot;font-size: 13px&quot;&gt;&lt;blockquote style=&quot;margin: 0px 0px 0px 40px ; border: none ; padding: 0px ; font-size: 13px&quot;&gt;int&lt;/blockquote&gt;&lt;/td&gt;&lt;td style=&quot;font-size: 13px&quot;&gt;&lt;blockquote style=&quot;margin: 0px 0px 0px 40px ; border: none ; padding: 0px ; font-size: 13px&quot;&gt;M, PK&lt;/blockquote&gt;&lt;/td&gt;&lt;/tr&gt;&lt;tr style=&quot;font-size: 13px&quot;&gt;&lt;td style=&quot;font-size: 13px&quot;&gt;group_name&lt;/td&gt;&lt;td style=&quot;font-size: 13px&quot;&gt;&lt;blockquote style=&quot;margin: 0px 0px 0px 40px ; border: none ; padding: 0px ; font-size: 13px&quot;&gt;varchar(10)&lt;/blockquote&gt;&lt;/td&gt;&lt;td style=&quot;font-size: 13px&quot;&gt;&lt;blockquote style=&quot;margin: 0px 0px 0px 40px ; border: none ; padding: 0px ; font-size: 13px&quot;&gt;M, K1&lt;/blockquote&gt;&lt;/td&gt;&lt;/tr&gt;&lt;/tbody&gt;&lt;/table&gt;" style="rounded=0;whiteSpace=wrap;html=1;labelBackgroundColor=none;fontFamily=Verdana;fontSize=13;align=left;verticalAlign=top;" parent="1" vertex="1">
          <mxGeometry x="764.62" y="65" width="300" height="90" as="geometry" />
        </mxCell>
        <mxCell id="s7-hiE1AwTSkqZ-X3qo4-16" value="&lt;div style=&quot;text-align: center ; font-size: 13px&quot;&gt;&lt;b style=&quot;font-size: 13px&quot;&gt;Teacher&lt;/b&gt;&lt;/div&gt;&lt;hr style=&quot;font-size: 13px&quot;&gt;&lt;table style=&quot;font-size: 13px&quot;&gt;&lt;tbody style=&quot;font-size: 13px&quot;&gt;&lt;tr style=&quot;font-size: 13px&quot;&gt;&lt;td style=&quot;font-size: 13px&quot;&gt;&lt;u&gt;teacher_id&lt;/u&gt;&lt;/td&gt;&lt;td style=&quot;font-size: 13px&quot;&gt;&lt;blockquote style=&quot;margin: 0px 0px 0px 40px ; border: none ; padding: 0px ; font-size: 13px&quot;&gt;int&lt;/blockquote&gt;&lt;/td&gt;&lt;td style=&quot;font-size: 13px&quot;&gt;&lt;blockquote style=&quot;margin: 0px 0px 0px 40px ; border: none ; padding: 0px ; font-size: 13px&quot;&gt;M, PK&lt;/blockquote&gt;&lt;/td&gt;&lt;/tr&gt;&lt;tr style=&quot;font-size: 13px&quot;&gt;&lt;td style=&quot;font-size: 13px&quot;&gt;teacher_forename&lt;/td&gt;&lt;td style=&quot;font-size: 13px&quot;&gt;&lt;blockquote style=&quot;margin: 0px 0px 0px 40px ; border: none ; padding: 0px ; font-size: 13px&quot;&gt;varchar(50)&lt;/blockquote&gt;&lt;/td&gt;&lt;td style=&quot;font-size: 13px&quot;&gt;&lt;blockquote style=&quot;margin: 0px 0px 0px 40px ; border: none ; padding: 0px ; font-size: 13px&quot;&gt;M&lt;/blockquote&gt;&lt;/td&gt;&lt;/tr&gt;&lt;tr style=&quot;font-size: 13px&quot;&gt;&lt;td style=&quot;font-size: 13px&quot;&gt;teacher_surname&lt;/td&gt;&lt;td style=&quot;font-size: 13px&quot;&gt;&lt;blockquote style=&quot;margin: 0px 0px 0px 40px ; border: none ; padding: 0px ; font-size: 13px&quot;&gt;varchar(50)&lt;/blockquote&gt;&lt;/td&gt;&lt;td style=&quot;font-size: 13px&quot;&gt;&lt;blockquote style=&quot;margin: 0px 0px 0px 40px ; border: none ; padding: 0px ; font-size: 13px&quot;&gt;M&lt;/blockquote&gt;&lt;/td&gt;&lt;/tr&gt;&lt;tr style=&quot;font-size: 13px&quot;&gt;&lt;td style=&quot;font-size: 13px&quot;&gt;teacher_sex&lt;/td&gt;&lt;td style=&quot;font-size: 13px&quot;&gt;&lt;blockquote style=&quot;margin: 0px 0px 0px 40px ; border: none ; padding: 0px ; font-size: 13px&quot;&gt;boolean&lt;/blockquote&gt;&lt;/td&gt;&lt;td style=&quot;font-size: 13px&quot;&gt;&lt;blockquote style=&quot;margin: 0px 0px 0px 40px ; border: none ; padding: 0px ; font-size: 13px&quot;&gt;M&lt;/blockquote&gt;&lt;/td&gt;&lt;/tr&gt;&lt;/tbody&gt;&lt;/table&gt;" style="rounded=0;whiteSpace=wrap;html=1;labelBackgroundColor=none;fontFamily=Verdana;fontSize=13;align=left;verticalAlign=top;" parent="1" vertex="1">
          <mxGeometry x="140" y="520" width="340" height="130" as="geometry" />
        </mxCell>
        <mxCell id="s7-hiE1AwTSkqZ-X3qo4-17" value="&lt;div style=&quot;text-align: center ; font-size: 13px&quot;&gt;&lt;b style=&quot;font-size: 13px&quot;&gt;Course&lt;/b&gt;&lt;/div&gt;&lt;hr style=&quot;font-size: 13px&quot;&gt;&lt;table style=&quot;font-size: 13px&quot;&gt;&lt;tbody style=&quot;font-size: 13px&quot;&gt;&lt;tr style=&quot;font-size: 13px&quot;&gt;&lt;td style=&quot;font-size: 13px&quot;&gt;&lt;u&gt;course_id&lt;/u&gt;&lt;/td&gt;&lt;td style=&quot;font-size: 13px&quot;&gt;&lt;blockquote style=&quot;margin: 0px 0px 0px 40px ; border: none ; padding: 0px ; font-size: 13px&quot;&gt;int&lt;/blockquote&gt;&lt;/td&gt;&lt;td style=&quot;font-size: 13px&quot;&gt;&lt;blockquote style=&quot;margin: 0px 0px 0px 40px ; border: none ; padding: 0px ; font-size: 13px&quot;&gt;M, PK&lt;/blockquote&gt;&lt;/td&gt;&lt;/tr&gt;&lt;tr style=&quot;font-size: 13px&quot;&gt;&lt;td style=&quot;font-size: 13px&quot;&gt;course_name&lt;/td&gt;&lt;td style=&quot;font-size: 13px&quot;&gt;&lt;blockquote style=&quot;margin: 0px 0px 0px 40px ; border: none ; padding: 0px ; font-size: 13px&quot;&gt;varchar(100)&lt;/blockquote&gt;&lt;/td&gt;&lt;td style=&quot;font-size: 13px&quot;&gt;&lt;blockquote style=&quot;margin: 0px 0px 0px 40px ; border: none ; padding: 0px ; font-size: 13px&quot;&gt;M&lt;/blockquote&gt;&lt;/td&gt;&lt;/tr&gt;&lt;tr style=&quot;font-size: 13px&quot;&gt;&lt;td style=&quot;font-size: 13px&quot;&gt;semester&lt;/td&gt;&lt;td style=&quot;font-size: 13px&quot;&gt;&lt;blockquote style=&quot;margin: 0px 0px 0px 40px ; border: none ; padding: 0px ; font-size: 13px&quot;&gt;int&lt;/blockquote&gt;&lt;/td&gt;&lt;td style=&quot;font-size: 13px&quot;&gt;&lt;blockquote style=&quot;margin: 0px 0px 0px 40px ; border: none ; padding: 0px ; font-size: 13px&quot;&gt;M&lt;/blockquote&gt;&lt;/td&gt;&lt;/tr&gt;&lt;tr style=&quot;font-size: 13px&quot;&gt;&lt;td style=&quot;font-size: 13px&quot;&gt;is_elective&lt;/td&gt;&lt;td style=&quot;font-size: 13px&quot;&gt;&lt;blockquote style=&quot;margin: 0px 0px 0px 40px ; border: none ; padding: 0px ; font-size: 13px&quot;&gt;boolean&lt;/blockquote&gt;&lt;/td&gt;&lt;td style=&quot;font-size: 13px&quot;&gt;&lt;blockquote style=&quot;margin: 0px 0px 0px 40px ; border: none ; padding: 0px ; font-size: 13px&quot;&gt;M&lt;/blockquote&gt;&lt;/td&gt;&lt;/tr&gt;&lt;/tbody&gt;&lt;/table&gt;" style="rounded=0;whiteSpace=wrap;html=1;labelBackgroundColor=none;fontFamily=Verdana;fontSize=13;align=left;verticalAlign=top;" parent="1" vertex="1">
          <mxGeometry x="764.62" y="220" width="310.77" height="130" as="geometry" />
        </mxCell>
        <mxCell id="s7-hiE1AwTSkqZ-X3qo4-18" value="&lt;div style=&quot;text-align: center ; font-size: 13px&quot;&gt;&lt;b style=&quot;font-size: 13px&quot;&gt;Mark&lt;/b&gt;&lt;/div&gt;&lt;hr style=&quot;font-size: 13px&quot;&gt;&lt;table style=&quot;font-size: 13px&quot;&gt;&lt;tbody style=&quot;font-size: 13px&quot;&gt;&lt;tr&gt;&lt;td&gt;&lt;u&gt;mark_id&lt;/u&gt;&lt;/td&gt;&lt;td&gt;&lt;blockquote style=&quot;margin: 0 0 0 40px ; border: none ; padding: 0px&quot;&gt;int&lt;/blockquote&gt;&lt;/td&gt;&lt;td&gt;&lt;blockquote style=&quot;margin: 0 0 0 40px ; border: none ; padding: 0px&quot;&gt;M, PK&lt;/blockquote&gt;&lt;/td&gt;&lt;/tr&gt;&lt;tr style=&quot;font-size: 13px&quot;&gt;&lt;td style=&quot;font-size: 13px&quot;&gt;course_member_id&lt;br&gt;&lt;/td&gt;&lt;td style=&quot;font-size: 13px&quot;&gt;&lt;blockquote style=&quot;margin: 0px 0px 0px 40px ; border: none ; padding: 0px ; font-size: 13px&quot;&gt;int&lt;/blockquote&gt;&lt;/td&gt;&lt;td style=&quot;font-size: 13px&quot;&gt;&lt;blockquote style=&quot;margin: 0px 0px 0px 40px ; border: none ; padding: 0px ; font-size: 13px&quot;&gt;M, FK4&lt;/blockquote&gt;&lt;/td&gt;&lt;/tr&gt;&lt;tr style=&quot;font-size: 13px&quot;&gt;&lt;td style=&quot;font-size: 13px&quot;&gt;points&lt;/td&gt;&lt;td style=&quot;font-size: 13px&quot;&gt;&lt;blockquote style=&quot;margin: 0px 0px 0px 40px ; border: none ; padding: 0px ; font-size: 13px&quot;&gt;decimal(5, 2)&lt;/blockquote&gt;&lt;/td&gt;&lt;td style=&quot;font-size: 13px&quot;&gt;&lt;blockquote style=&quot;margin: 0px 0px 0px 40px ; border: none ; padding: 0px ; font-size: 13px&quot;&gt;M&lt;/blockquote&gt;&lt;/td&gt;&lt;/tr&gt;&lt;/tbody&gt;&lt;/table&gt;" style="rounded=0;whiteSpace=wrap;html=1;labelBackgroundColor=none;fontFamily=Verdana;fontSize=13;align=left;verticalAlign=top;" parent="1" vertex="1">
          <mxGeometry x="480" y="390" width="360" height="100" as="geometry" />
        </mxCell>
        <mxCell id="s7-hiE1AwTSkqZ-X3qo4-26" value="FK4" style="endArrow=classic;html=1;rounded=0;edgeStyle=orthogonalEdgeStyle;fontSize=13;entryX=0.5;entryY=1;entryDx=0;entryDy=0;exitX=0;exitY=0.5;exitDx=0;exitDy=0;" parent="1" source="s7-hiE1AwTSkqZ-X3qo4-18" target="s7-hiE1AwTSkqZ-X3qo4-27" edge="1">
          <mxGeometry width="50" height="50" relative="1" as="geometry">
            <mxPoint x="279.23" y="342.5" as="sourcePoint" />
            <mxPoint x="279.23" y="239.9999999999999" as="targetPoint" />
          </mxGeometry>
        </mxCell>
        <mxCell id="s7-hiE1AwTSkqZ-X3qo4-27" value="&lt;div style=&quot;text-align: center ; font-size: 13px&quot;&gt;&lt;b style=&quot;font-size: 13px&quot;&gt;CourseMember&lt;/b&gt;&lt;/div&gt;&lt;hr style=&quot;font-size: 13px&quot;&gt;&lt;table style=&quot;font-size: 13px&quot;&gt;&lt;tbody style=&quot;font-size: 13px&quot;&gt;&lt;tr&gt;&lt;td&gt;&lt;u&gt;course_member_id&lt;/u&gt;&lt;/td&gt;&lt;td&gt;&lt;blockquote style=&quot;margin: 0 0 0 40px ; border: none ; padding: 0px&quot;&gt;int&lt;/blockquote&gt;&lt;/td&gt;&lt;td&gt;&lt;blockquote style=&quot;margin: 0 0 0 40px ; border: none ; padding: 0px&quot;&gt;&lt;blockquote style=&quot;margin: 0 0 0 40px ; border: none ; padding: 0px&quot;&gt;M, PK&lt;/blockquote&gt;&lt;/blockquote&gt;&lt;/td&gt;&lt;/tr&gt;&lt;tr style=&quot;font-size: 13px&quot;&gt;&lt;td style=&quot;font-size: 13px&quot;&gt;student_id&lt;/td&gt;&lt;td style=&quot;font-size: 13px&quot;&gt;&lt;blockquote style=&quot;margin: 0 0 0 40px ; border: none ; padding: 0px&quot;&gt;int&lt;/blockquote&gt;&lt;/td&gt;&lt;td style=&quot;font-size: 13px&quot;&gt;&lt;blockquote style=&quot;margin: 0 0 0 40px ; border: none ; padding: 0px&quot;&gt;&lt;blockquote style=&quot;margin: 0px 0px 0px 40px ; border: none ; padding: 0px ; font-size: 13px&quot;&gt;M, FK2&lt;/blockquote&gt;&lt;/blockquote&gt;&lt;/td&gt;&lt;/tr&gt;&lt;tr style=&quot;font-size: 13px&quot;&gt;&lt;td style=&quot;font-size: 13px&quot;&gt;course_id&lt;/td&gt;&lt;td style=&quot;font-size: 13px&quot;&gt;&lt;blockquote style=&quot;margin: 0 0 0 40px ; border: none ; padding: 0px&quot;&gt;int&lt;/blockquote&gt;&lt;/td&gt;&lt;td style=&quot;font-size: 13px&quot;&gt;&lt;blockquote style=&quot;margin: 0 0 0 40px ; border: none ; padding: 0px&quot;&gt;&lt;blockquote style=&quot;margin: 0px 0px 0px 40px ; border: none ; padding: 0px ; font-size: 13px&quot;&gt;M, FK3&lt;/blockquote&gt;&lt;/blockquote&gt;&lt;/td&gt;&lt;/tr&gt;&lt;tr&gt;&lt;td&gt;passed&lt;/td&gt;&lt;td&gt;&lt;blockquote style=&quot;margin: 0 0 0 40px ; border: none ; padding: 0px&quot;&gt;boolean&lt;/blockquote&gt;&lt;/td&gt;&lt;td&gt;&lt;blockquote style=&quot;margin: 0 0 0 40px ; border: none ; padding: 0px&quot;&gt;&lt;blockquote style=&quot;margin: 0 0 0 40px ; border: none ; padding: 0px&quot;&gt;M&lt;/blockquote&gt;&lt;/blockquote&gt;&lt;/td&gt;&lt;/tr&gt;&lt;/tbody&gt;&lt;/table&gt;" style="rounded=0;whiteSpace=wrap;html=1;labelBackgroundColor=none;fontFamily=Verdana;fontSize=13;align=left;verticalAlign=top;" parent="1" vertex="1">
          <mxGeometry x="112.18" y="260" width="361.88" height="120" as="geometry" />
        </mxCell>
        <mxCell id="s7-hiE1AwTSkqZ-X3qo4-28" value="FK2" style="edgeStyle=orthogonalEdgeStyle;rounded=0;orthogonalLoop=1;jettySize=auto;html=1;fontFamily=Verdana;fontSize=13;endArrow=classic;endFill=1;startArrow=none;startFill=0;exitX=0.5;exitY=0;exitDx=0;exitDy=0;entryX=0.5;entryY=1;entryDx=0;entryDy=0;" parent="1" source="s7-hiE1AwTSkqZ-X3qo4-27" target="s7-hiE1AwTSkqZ-X3qo4-14" edge="1">
          <mxGeometry relative="1" as="geometry">
            <mxPoint x="751.1199999999999" y="154.9999999999999" as="targetPoint" />
            <mxPoint x="456.26" y="154.9999999999999" as="sourcePoint" />
          </mxGeometry>
        </mxCell>
        <mxCell id="s7-hiE1AwTSkqZ-X3qo4-29" value="FK3" style="edgeStyle=orthogonalEdgeStyle;rounded=0;orthogonalLoop=1;jettySize=auto;html=1;fontFamily=Verdana;fontSize=13;endArrow=classic;endFill=1;startArrow=none;startFill=0;exitX=1;exitY=0.5;exitDx=0;exitDy=0;" parent="1" source="s7-hiE1AwTSkqZ-X3qo4-27" target="s7-hiE1AwTSkqZ-X3qo4-17" edge="1">
          <mxGeometry relative="1" as="geometry">
            <mxPoint x="901.1428571428573" y="199.9999999999999" as="targetPoint" />
            <mxPoint x="635" y="269.9999999999999" as="sourcePoint" />
          </mxGeometry>
        </mxCell>
        <mxCell id="s7-hiE1AwTSkqZ-X3qo4-30" value="&lt;div style=&quot;text-align: center ; font-size: 13px&quot;&gt;&lt;b style=&quot;font-size: 13px&quot;&gt;TeacherCourse&lt;/b&gt;&lt;/div&gt;&lt;hr style=&quot;font-size: 13px&quot;&gt;&lt;table style=&quot;font-size: 13px&quot;&gt;&lt;tbody style=&quot;font-size: 13px&quot;&gt;&lt;tr style=&quot;font-size: 13px&quot;&gt;&lt;td style=&quot;font-size: 13px&quot;&gt;&lt;u&gt;teacher_id&lt;/u&gt;&lt;/td&gt;&lt;td style=&quot;font-size: 13px&quot;&gt;&lt;blockquote style=&quot;margin: 0 0 0 40px ; border: none ; padding: 0px&quot;&gt;&lt;blockquote style=&quot;margin: 0px 0px 0px 40px ; border: none ; padding: 0px ; font-size: 13px&quot;&gt;int&lt;/blockquote&gt;&lt;/blockquote&gt;&lt;/td&gt;&lt;td style=&quot;font-size: 13px&quot;&gt;&lt;blockquote style=&quot;margin: 0 0 0 40px ; border: none ; padding: 0px&quot;&gt;&lt;blockquote style=&quot;margin: 0px 0px 0px 40px ; border: none ; padding: 0px ; font-size: 13px&quot;&gt;M, FK6&lt;/blockquote&gt;&lt;/blockquote&gt;&lt;/td&gt;&lt;/tr&gt;&lt;tr style=&quot;font-size: 13px&quot;&gt;&lt;td style=&quot;font-size: 13px&quot;&gt;&lt;u&gt;course_id&lt;/u&gt;&lt;/td&gt;&lt;td style=&quot;font-size: 13px&quot;&gt;&lt;blockquote style=&quot;margin: 0 0 0 40px ; border: none ; padding: 0px&quot;&gt;&lt;blockquote style=&quot;margin: 0px 0px 0px 40px ; border: none ; padding: 0px ; font-size: 13px&quot;&gt;int&lt;/blockquote&gt;&lt;/blockquote&gt;&lt;/td&gt;&lt;td style=&quot;font-size: 13px&quot;&gt;&lt;blockquote style=&quot;margin: 0 0 0 40px ; border: none ; padding: 0px&quot;&gt;&lt;blockquote style=&quot;margin: 0px 0px 0px 40px ; border: none ; padding: 0px ; font-size: 13px&quot;&gt;M, FK5&lt;/blockquote&gt;&lt;/blockquote&gt;&lt;/td&gt;&lt;/tr&gt;&lt;tr&gt;&lt;td&gt;teacher_position&lt;/td&gt;&lt;td&gt;&lt;blockquote style=&quot;margin: 0 0 0 40px ; border: none ; padding: 0px&quot;&gt;&lt;blockquote style=&quot;margin: 0 0 0 40px ; border: none ; padding: 0px&quot;&gt;int&lt;/blockquote&gt;&lt;/blockquote&gt;&lt;/td&gt;&lt;td&gt;&lt;blockquote style=&quot;margin: 0 0 0 40px ; border: none ; padding: 0px&quot;&gt;&lt;blockquote style=&quot;margin: 0 0 0 40px ; border: none ; padding: 0px&quot;&gt;M&lt;/blockquote&gt;&lt;/blockquote&gt;&lt;/td&gt;&lt;/tr&gt;&lt;/tbody&gt;&lt;/table&gt;" style="rounded=0;whiteSpace=wrap;html=1;labelBackgroundColor=none;fontFamily=Verdana;fontSize=13;align=left;verticalAlign=top;" parent="1" vertex="1">
          <mxGeometry x="739.8100000000001" y="532.5" width="360.38" height="105" as="geometry" />
        </mxCell>
        <mxCell id="s7-hiE1AwTSkqZ-X3qo4-31" value="FK5" style="endArrow=none;html=1;fontFamily=Verdana;fontSize=13;rounded=0;endFill=0;startArrow=classic;startFill=1;edgeStyle=orthogonalEdgeStyle;" parent="1" source="s7-hiE1AwTSkqZ-X3qo4-17" target="s7-hiE1AwTSkqZ-X3qo4-30" edge="1">
          <mxGeometry width="50" height="50" relative="1" as="geometry">
            <mxPoint x="890" y="520" as="sourcePoint" />
            <mxPoint x="1017.3074999999999" y="480" as="targetPoint" />
          </mxGeometry>
        </mxCell>
        <mxCell id="s7-hiE1AwTSkqZ-X3qo4-32" value="FK6" style="endArrow=none;html=1;fontFamily=Verdana;fontSize=13;rounded=0;endFill=0;startArrow=classic;startFill=1;edgeStyle=orthogonalEdgeStyle;" parent="1" source="s7-hiE1AwTSkqZ-X3qo4-16" target="s7-hiE1AwTSkqZ-X3qo4-30" edge="1">
          <mxGeometry width="50" height="50" relative="1" as="geometry">
            <mxPoint x="907.0025000000002" y="530" as="sourcePoint" />
            <mxPoint x="922.1999999999999" y="670" as="targetPoint" />
          </mxGeometry>
        </mxCell>
        <mxCell id="kOCPnGm5-2pklqighwcg-1" value="&lt;div style=&quot;text-align: center&quot;&gt;&lt;span&gt;teacher_position&lt;/span&gt;&lt;/div&gt;&lt;table&gt;&lt;tbody&gt;&lt;tr&gt;&lt;td&gt;lecturer&lt;/td&gt;&lt;td&gt;&lt;blockquote style=&quot;margin: 0 0 0 40px ; border: none ; padding: 0px&quot;&gt;1&lt;/blockquote&gt;&lt;/td&gt;&lt;/tr&gt;&lt;tr&gt;&lt;td&gt;ppractitioner&lt;/td&gt;&lt;td&gt;&lt;blockquote style=&quot;margin: 0 0 0 40px ; border: none ; padding: 0px&quot;&gt;2&lt;/blockquote&gt;&lt;/td&gt;&lt;/tr&gt;&lt;tr&gt;&lt;td&gt;both&lt;/td&gt;&lt;td&gt;&lt;blockquote style=&quot;margin: 0 0 0 40px ; border: none ; padding: 0px&quot;&gt;3&lt;/blockquote&gt;&lt;/td&gt;&lt;/tr&gt;&lt;/tbody&gt;&lt;/table&gt;" style="text;html=1;align=left;verticalAlign=middle;resizable=0;points=[];autosize=1;" parent="1" vertex="1">
          <mxGeometry x="734.4300000000001" y="680" width="140" height="70" as="geometry" />
        </mxCell>
        <mxCell id="kOCPnGm5-2pklqighwcg-2" value="&lt;div style=&quot;text-align: center&quot;&gt;&lt;span&gt;sex&lt;/span&gt;&lt;/div&gt;&lt;table&gt;&lt;tbody&gt;&lt;tr&gt;&lt;td&gt;female&lt;/td&gt;&lt;td&gt;&lt;blockquote style=&quot;margin: 0 0 0 40px ; border: none ; padding: 0px&quot;&gt;false&lt;/blockquote&gt;&lt;/td&gt;&lt;/tr&gt;&lt;tr&gt;&lt;td&gt;male&lt;/td&gt;&lt;td&gt;&lt;blockquote style=&quot;margin: 0 0 0 40px ; border: none ; padding: 0px&quot;&gt;true&lt;/blockquote&gt;&lt;/td&gt;&lt;/tr&gt;&lt;/tbody&gt;&lt;/table&gt;" style="text;html=1;align=left;verticalAlign=middle;resizable=0;points=[];autosize=1;" parent="1" vertex="1">
          <mxGeometry x="500.00000000000006" y="140" width="130" height="50" as="geometry" />
        </mxCell>
      </root>
    </mxGraphModel>
  </diagram>
</mxfile>
